<svg width="28" height="28" viewBox="0 0 28 28" fill="none" xmlns="http://www.w3.org/2000/svg">
<path fill-rule="evenodd" clip-rule="evenodd" d="M20.7446 7.2556C20.8261 7.33688 20.8908 7.43344 20.9349 7.53974C20.979 7.64604 21.0017 7.76001 21.0017 7.8751C21.0017 7.99019 20.979 8.10415 20.9349 8.21046C20.8908 8.31676 20.8261 8.41332 20.7446 8.4946L8.49463 20.7446C8.33033 20.9089 8.10749 21.0012 7.87513 21.0012C7.64277 21.0012 7.41993 20.9089 7.25563 20.7446C7.09133 20.5803 6.99902 20.3575 6.99902 20.1251C6.99902 19.8927 7.09133 19.6699 7.25563 19.5056L19.5056 7.2556C19.5869 7.17411 19.6835 7.10946 19.7898 7.06535C19.8961 7.02124 20.01 6.99854 20.1251 6.99854C20.2402 6.99854 20.3542 7.02124 20.4605 7.06535C20.5668 7.10946 20.6633 7.17411 20.7446 7.2556Z" fill="#FF4D8B"/>
<path fill-rule="evenodd" clip-rule="evenodd" d="M7.2556 7.2556C7.17411 7.33688 7.10946 7.43344 7.06535 7.53974C7.02124 7.64604 6.99854 7.76001 6.99854 7.8751C6.99854 7.99019 7.02124 8.10415 7.06535 8.21046C7.10946 8.31676 7.17411 8.41332 7.2556 8.4946L19.5056 20.7446C19.6699 20.9089 19.8927 21.0012 20.1251 21.0012C20.3575 21.0012 20.5803 20.9089 20.7446 20.7446C20.9089 20.5803 21.0012 20.3575 21.0012 20.1251C21.0012 19.8927 20.9089 19.6699 20.7446 19.5056L8.4946 7.2556C8.41332 7.17411 8.31676 7.10946 8.21046 7.06535C8.10415 7.02124 7.99019 6.99854 7.8751 6.99854C7.76001 6.99854 7.64604 7.02124 7.53974 7.06535C7.43344 7.10946 7.33688 7.17411 7.2556 7.2556Z" fill="#FF4D8B"/>
</svg>
