<svg width="18" height="18" viewBox="0 0 18 18" fill="none" xmlns="http://www.w3.org/2000/svg">
<path d="M13.2001 3.98246L8.96261 1.70246C8.51261 1.46246 7.98011 1.46246 7.53011 1.70246L3.30011 3.98246C2.99261 4.15496 2.79761 4.48496 2.79761 4.84496C2.79761 5.21246 2.98511 5.54246 3.30011 5.70746L7.53761 7.98746C7.76261 8.10746 8.01011 8.16746 8.25011 8.16746C8.49011 8.16746 8.74511 8.10746 8.96261 7.98746L13.2001 5.70746C13.5076 5.54246 13.7026 5.21246 13.7026 4.84496C13.7026 4.48496 13.5076 4.15496 13.2001 3.98246Z" fill="#292D32"/>
<path d="M6.84 8.78245L2.9025 6.81745C2.595 6.65995 2.25 6.68245 1.9575 6.85495C1.6725 7.03495 1.5 7.34245 1.5 7.67995V11.3999C1.5 12.0449 1.86 12.6224 2.4375 12.9149L6.375 14.8799C6.51 14.9474 6.66 14.9849 6.81 14.9849C6.9825 14.9849 7.1625 14.9324 7.32 14.8424C7.605 14.6624 7.7775 14.3549 7.7775 14.0174V10.2974C7.77 9.65245 7.41 9.07495 6.84 8.78245Z" fill="#292D32"/>
<path d="M15 7.67995V9.52495C14.64 9.41995 14.2575 9.37495 13.875 9.37495C12.855 9.37495 11.8575 9.72745 11.07 10.3574C9.98998 11.2049 9.37498 12.4874 9.37498 13.8749C9.37498 14.2424 9.41998 14.6099 9.51748 14.9624C9.40498 14.9474 9.29248 14.9024 9.18748 14.8349C8.90248 14.6624 8.72998 14.3549 8.72998 14.0174V10.2974C8.72998 9.65245 9.08998 9.07495 9.65998 8.78245L13.5975 6.81745C13.905 6.65995 14.25 6.68245 14.5425 6.85495C14.8275 7.03495 15 7.34245 15 7.67995Z" fill="#292D32"/>
<path d="M16.485 11.7375C15.87 10.98 14.9325 10.5 13.875 10.5C13.08 10.5 12.345 10.7775 11.7675 11.2425C10.9875 11.8575 10.5 12.81 10.5 13.875C10.5 14.9325 10.98 15.87 11.7375 16.485C12.315 16.965 13.065 17.25 13.875 17.25C14.73 17.25 15.5025 16.9275 16.1025 16.41C16.8 15.7875 17.25 14.8875 17.25 13.875C17.25 13.065 16.965 12.315 16.485 11.7375ZM14.6475 14.085C14.6475 14.28 14.5425 14.4675 14.3775 14.565L13.32 15.195C13.23 15.2475 13.1325 15.2775 13.0275 15.2775C12.84 15.2775 12.6525 15.18 12.5475 15.0075C12.39 14.7375 12.4725 14.3925 12.7425 14.235L13.5225 13.77V12.825C13.5225 12.5175 13.7775 12.2625 14.085 12.2625C14.3925 12.2625 14.6475 12.5175 14.6475 12.825V14.085Z" fill="#292D32"/>
</svg>
