<svg width="20" height="20" viewBox="0 0 20 20" fill="none" xmlns="http://www.w3.org/2000/svg">
<path fill-rule="evenodd" clip-rule="evenodd" d="M9.99996 2.41675C5.81417 2.41675 2.41663 5.8143 2.41663 10.0001C2.41663 14.1859 5.81417 17.5834 9.99996 17.5834C14.1857 17.5834 17.5833 14.1859 17.5833 10.0001C17.5833 5.8143 14.1857 2.41675 9.99996 2.41675ZM0.916626 10.0001C0.916626 4.98587 4.98575 0.916748 9.99996 0.916748C15.0142 0.916748 19.0833 4.98587 19.0833 10.0001C19.0833 15.0143 15.0142 19.0834 9.99996 19.0834C4.98575 19.0834 0.916626 15.0143 0.916626 10.0001Z" fill="#EA985B"/>
<path fill-rule="evenodd" clip-rule="evenodd" d="M9.69165 5.5083C10.1059 5.5083 10.4417 5.84409 10.4417 6.2583V9.67497C10.4417 9.77601 10.482 9.94024 10.5827 10.117C10.6836 10.2937 10.8043 10.4119 10.8907 10.4631L10.8927 10.4643L13.476 12.0059C13.8317 12.2182 13.948 12.6786 13.7357 13.0343C13.5234 13.39 13.063 13.5063 12.7073 13.294L10.126 11.7535C10.1256 11.7533 10.1252 11.753 10.1248 11.7528C9.76168 11.5373 9.47453 11.2016 9.27973 10.86C9.08468 10.518 8.94165 10.0989 8.94165 9.67497V6.2583C8.94165 5.84409 9.27744 5.5083 9.69165 5.5083Z" fill="#EA985B"/>
</svg>
