<svg width="12" height="11" viewBox="0 0 12 11" fill="none" xmlns="http://www.w3.org/2000/svg">
<path d="M4.0248 9.66061C2.3604 8.01671 1.6152 6.38705 1.3368 4.49882C1.80445 4.72722 2.33467 4.79881 2.84717 4.70275C3.35966 4.60669 3.82655 4.3482 4.17713 3.96643C4.52771 3.58466 4.74291 3.10039 4.79014 2.58693C4.83737 2.07347 4.71406 1.55878 4.43889 1.12077C4.16371 0.682768 3.75165 0.345302 3.26508 0.159461C2.77851 -0.0263804 2.24393 -0.0504771 1.74227 0.0908188C1.24061 0.232115 0.799179 0.53111 0.48481 0.942539C0.170441 1.35397 0.000249863 1.85543 0 2.37101C0.00119972 5.44531 0.6336 7.98587 3.1764 10.5003C3.28906 10.6117 3.44187 10.6743 3.6012 10.6743C3.76053 10.6743 3.91333 10.6117 4.026 10.5003C4.13866 10.389 4.20196 10.238 4.20196 10.0805C4.20196 9.92299 4.13746 9.77196 4.0248 9.66061ZM11.2248 9.66061C9.5604 8.01671 8.814 6.38705 8.5368 4.49882C9.00445 4.72722 9.53466 4.79881 10.0472 4.70275C10.5597 4.60669 11.0265 4.3482 11.3771 3.96643C11.7277 3.58466 11.9429 3.10039 11.9901 2.58693C12.0374 2.07347 11.9141 1.55878 11.6389 1.12077C11.3637 0.682768 10.9516 0.345302 10.4651 0.159461C9.97851 -0.0263804 9.44393 -0.0504771 8.94227 0.0908188C8.44061 0.232115 7.99918 0.53111 7.68481 0.942539C7.37044 1.35397 7.20025 1.85543 7.2 2.37101C7.2012 5.44531 7.8336 7.98587 10.3764 10.5003C10.4891 10.6117 10.6419 10.6743 10.8012 10.6743C10.9605 10.6743 11.1133 10.6117 11.226 10.5003C11.3387 10.389 11.402 10.238 11.402 10.0805C11.402 9.92299 11.3375 9.77196 11.2248 9.66061Z" fill="#F4739E"/>
</svg>
