<svg width="16" height="16" viewBox="0 0 16 16" fill="none" xmlns="http://www.w3.org/2000/svg">
<path d="M7.33342 13.2666V2.73325C7.33342 1.73325 6.90675 1.33325 5.84675 1.33325H3.15341C2.09341 1.33325 1.66675 1.73325 1.66675 2.73325V13.2666C1.66675 14.2666 2.09341 14.6666 3.15341 14.6666H5.84675C6.90675 14.6666 7.33342 14.2666 7.33342 13.2666Z" fill="#292D32"/>
<path d="M14.3334 7.26659V2.73325C14.3334 1.73325 13.9067 1.33325 12.8467 1.33325H10.1534C9.09341 1.33325 8.66675 1.73325 8.66675 2.73325V7.26659C8.66675 8.26659 9.09341 8.66659 10.1534 8.66659H12.8467C13.9067 8.66659 14.3334 8.26659 14.3334 7.26659Z" fill="#292D32"/>
<path d="M14.3334 13.2667V11.4C14.3334 10.4 13.9067 10 12.8467 10H10.1534C9.09341 10 8.66675 10.4 8.66675 11.4V13.2667C8.66675 14.2667 9.09341 14.6667 10.1534 14.6667H12.8467C13.9067 14.6667 14.3334 14.2667 14.3334 13.2667Z" fill="#292D32"/>
</svg>
