<svg width="31" height="32" viewBox="0 0 31 32" fill="none" xmlns="http://www.w3.org/2000/svg">
<path d="M30.5908 15.9801C30.5908 14.9528 30.4998 13.9776 30.3437 13.0283H15.6498V18.8929H24.063C23.6859 20.8174 22.5806 22.4429 20.9422 23.5482V27.4492H25.9616C28.9004 24.7315 30.5908 20.7264 30.5908 15.9801Z" fill="#4285F4"/>
<path d="M15.6499 31.2333C19.863 31.2333 23.387 29.829 25.9616 27.4493L20.9423 23.5483C19.5379 24.4845 17.7564 25.0567 15.6499 25.0567C11.5798 25.0567 8.13384 22.3129 6.89851 18.6069H1.72311V22.625C4.2848 27.7224 9.55122 31.2333 15.6499 31.2333Z" fill="#34A853"/>
<path d="M6.8985 18.607C6.57341 17.6707 6.40437 16.6695 6.40437 15.6292C6.40437 14.5889 6.58642 13.5876 6.8985 12.6514V8.6333H1.72311C0.656818 10.7399 0.0456543 13.1065 0.0456543 15.6292C0.0456543 18.1519 0.656818 20.5185 1.72311 22.6251L6.8985 18.607Z" fill="#FBBC05"/>
<path d="M15.6499 6.20157C17.9515 6.20157 20.006 6.99478 21.6315 8.5422L26.0787 4.095C23.387 1.57232 19.863 0.0249023 15.6499 0.0249023C9.55122 0.0249023 4.2848 3.53585 1.72311 8.63322L6.89851 12.6513C8.13384 8.94531 11.5798 6.20157 15.6499 6.20157Z" fill="#EA4335"/>
</svg>
