<svg width="113" height="104" viewBox="0 0 113 104" fill="none" xmlns="http://www.w3.org/2000/svg">
<g filter="url(#filter0_d_0_3541)">
<path d="M62.7248 19.2544L62.0321 18.3248C61.5837 18.5479 61.3376 18.9651 61.4034 19.3906C61.4689 19.8159 61.8342 20.1702 62.3364 20.2954L62.7248 19.2544ZM50.2751 19.2544L50.6636 20.2954C51.1657 20.1702 51.531 19.8159 51.5968 19.3906C51.6623 18.9651 51.4162 18.5479 50.9678 18.3248L50.2751 19.2544ZM67.1565 10.8824C67.1565 14.0339 65.1076 16.7954 62.0321 18.3248L63.4175 20.1839C67.2538 18.276 69.8207 14.8246 69.8207 10.8824H67.1565ZM56.5001 2.17647C62.3854 2.17647 67.1565 6.07422 67.1565 10.8824H69.8207C69.8207 4.8722 63.8568 0 56.5001 0V2.17647ZM45.8435 10.8824C45.8435 6.07422 50.6146 2.17647 56.5001 2.17647V0C49.1432 0 43.1794 4.8722 43.1794 10.8824H45.8435ZM50.9678 18.3248C47.8924 16.7954 45.8435 14.0339 45.8435 10.8824H43.1794C43.1794 14.8246 45.7462 18.276 49.5825 20.1839L50.9678 18.3248ZM49.8866 18.2134C41.4767 20.3084 35.1434 26.2926 34.0294 33.6051L36.6731 33.8739C37.6551 27.4274 43.2429 22.1438 50.6636 20.2954L49.8866 18.2134ZM34.0294 33.6051C33.735 35.5378 35.6948 37 37.8512 37V34.8235C37.0649 34.8235 36.6041 34.3271 36.6731 33.8739L34.0294 33.6051ZM37.8512 37H75.1489V34.8235H37.8512V37ZM75.1489 37C77.3052 37 79.2649 35.5378 78.9706 33.6051L76.3267 33.8739C76.3957 34.3271 75.9351 34.8235 75.1489 34.8235V37ZM78.9706 33.6051C77.8567 26.2926 71.5233 20.3084 63.1132 18.2134L62.3364 20.2954C69.757 22.1438 75.3447 27.4274 76.3267 33.8739L78.9706 33.6051Z" fill="#292D32"/>
</g>
<defs>
<filter id="filter0_d_0_3541" x="0.666668" y="0" width="111.667" height="103.667" filterUnits="userSpaceOnUse" color-interpolation-filters="sRGB">
<feFlood flood-opacity="0" result="BackgroundImageFix"/>
<feColorMatrix in="SourceAlpha" type="matrix" values="0 0 0 0 0 0 0 0 0 0 0 0 0 0 0 0 0 0 127 0" result="hardAlpha"/>
<feOffset dy="33.3333"/>
<feGaussianBlur stdDeviation="16.6667"/>
<feColorMatrix type="matrix" values="0 0 0 0 0 0 0 0 0 0 0 0 0 0 0 0 0 0 0.1 0"/>
<feBlend mode="normal" in2="BackgroundImageFix" result="effect1_dropShadow_0_3541"/>
<feBlend mode="normal" in="SourceGraphic" in2="effect1_dropShadow_0_3541" result="shape"/>
</filter>
</defs>
</svg>
