<svg width="31" height="37" viewBox="0 0 31 37" fill="none" xmlns="http://www.w3.org/2000/svg">
<path d="M25.6538 19.7462C25.7053 25.2932 30.52 27.1391 30.5734 27.1627C30.5327 27.2929 29.8041 29.7933 28.0368 32.3761C26.509 34.609 24.9234 36.8337 22.4256 36.8798C19.9713 36.925 19.1821 35.4244 16.376 35.4244C13.5709 35.4244 12.694 36.8337 10.3707 36.925C7.95973 37.0163 6.12377 34.5104 4.58332 32.2857C1.43559 27.7349 -0.969923 19.4262 2.26007 13.8178C3.86467 11.0326 6.7322 9.26885 9.84465 9.22363C12.2122 9.17847 14.4469 10.8164 15.8942 10.8164C17.3406 10.8164 20.0562 8.84663 22.9111 9.13592C24.1062 9.18567 27.4609 9.61869 29.6151 12.7718C29.4415 12.8794 25.6122 15.1087 25.6538 19.7462V19.7462ZM21.0412 6.12518C22.3212 4.57577 23.1827 2.41884 22.9477 0.272705C21.1026 0.34686 18.8716 1.5022 17.5481 3.05076C16.3621 4.42209 15.3234 6.61698 15.6037 8.72064C17.6602 8.87975 19.7611 7.67559 21.0412 6.12519" fill="#292D32"/>
</svg>
