<svg width="37" height="37" viewBox="0 0 37 37" fill="none" xmlns="http://www.w3.org/2000/svg">
<path d="M36.8181 18.3182C36.8181 8.30428 28.6957 0.181885 18.6818 0.181885C8.66781 0.181885 0.54541 8.30428 0.54541 18.3182C0.54541 27.3687 7.17652 34.8748 15.848 36.235V23.5608H11.243V18.3182H15.848V14.3226C15.848 9.77786 18.5578 7.2664 22.6987 7.2664C24.6824 7.2664 26.7581 7.62063 26.7581 7.62063V12.0839H24.4698C22.2169 12.0839 21.5156 13.4831 21.5156 14.9177V18.3182H26.5456L25.7415 23.5608H21.5156V36.235C30.187 34.8748 36.8181 27.3723 36.8181 18.3182Z" fill="#1977F3"/>
<path d="M25.7415 23.5607L26.5456 18.3182H21.5156V14.9176C21.5156 13.483 22.2169 12.0838 24.4698 12.0838H26.7581V7.62058C26.7581 7.62058 24.6824 7.26636 22.6987 7.26636C18.5578 7.26636 15.848 9.77428 15.848 14.3225V18.3182H11.243V23.5607H15.848V36.2349C16.7725 36.3802 17.7183 36.4546 18.6818 36.4546C19.6453 36.4546 20.591 36.3766 21.5156 36.2349V23.5607H25.7415Z" fill="#FEFEFE"/>
</svg>
