<svg width="45" height="37" viewBox="0 0 45 37" fill="none" xmlns="http://www.w3.org/2000/svg">
<path d="M35.625 18.5L28.125 12.3333M35.625 18.5L28.125 24.6667M35.625 18.5H16.875M26.25 32.375C24.0339 32.375 21.8396 32.0161 19.7922 31.3188C17.7448 30.6215 15.8846 29.5995 14.3176 28.3111C12.7506 27.0227 11.5076 25.4931 10.6595 23.8097C9.81148 22.1263 9.375 20.3221 9.375 18.5C9.375 16.6779 9.81148 14.8737 10.6595 13.1903C11.5076 11.5069 12.7506 9.97731 14.3176 8.68889C15.8846 7.40048 17.7448 6.37846 19.7922 5.68117C21.8396 4.98389 24.0339 4.625 26.25 4.625" stroke="#292D32" stroke-width="2" stroke-linecap="round" stroke-linejoin="round"/>
</svg>
