<svg width="11" height="16" viewBox="0 0 11 16" fill="none" xmlns="http://www.w3.org/2000/svg">
<path d="M1.85683 0.340656L2.70228 0.0736026C3.49508 -0.176372 4.34209 0.22809 4.68153 1.01838L5.35725 2.59276C5.65112 3.27825 5.48769 4.08484 4.95339 4.58634L3.46443 5.98217C3.55636 6.81749 3.8408 7.63961 4.31695 8.44853C4.76911 9.23117 5.37562 9.9162 6.10056 10.4631L7.88887 9.87308C8.56617 9.65027 9.30476 9.90724 9.71962 10.5104L10.6884 11.9156C11.1716 12.6174 11.0844 13.5847 10.4849 14.1793L9.84298 14.8167C9.2034 15.4509 8.2896 15.6815 7.44494 15.4207C5.44918 14.8058 3.61608 12.9807 1.94248 9.94528C0.266516 6.90521 -0.325138 4.32473 0.1683 2.20693C0.375732 1.31571 1.01767 0.605381 1.85683 0.340656Z" fill="#F4739E"/>
</svg>
